<svg width="47" height="47" viewBox="0 0 47 47" fill="none" xmlns="http://www.w3.org/2000/svg">
<path d="M23.5 31.3337H23.5196M23.5 23.5003H23.5196M23.5 15.667H23.5196M41.125 27.417V35.2087C41.125 36.3132 40.2296 37.2087 39.125 37.2087H7.875C6.77043 37.2087 5.875 36.3132 5.875 35.2087V27.417C8.03812 27.417 9.79167 25.6634 9.79167 23.5003C9.79167 21.3372 8.03812 19.5837 5.875 19.5837V11.792C5.875 10.6874 6.77043 9.79199 7.875 9.79199H39.125C40.2296 9.79199 41.125 10.6874 41.125 11.792V19.5837C38.9619 19.5837 37.2083 21.3372 37.2083 23.5003C37.2083 25.6634 38.9619 27.417 41.125 27.417Z" stroke="white" stroke-width="3" stroke-linecap="round" stroke-linejoin="round"/>
</svg>
